<mxfile host="app.diagrams.net" modified="2024-06-21T03:56:41.025Z" agent="Mozilla/5.0 (Windows NT 10.0; Win64; x64) AppleWebKit/537.36 (KHTML, like Gecko) Chrome/126.0.0.0 Safari/537.36" version="24.6.0" etag="-svE8VygmzHXaBuuy7Xz" type="github">
  <diagram name="第 1 页" id="1hMqyn3Oo6eIW8ZZlQXd">
    <mxGraphModel>
      <root>
        <mxCell id="0" />
        <mxCell id="1" parent="0" />
      </root>
    </mxGraphModel>
  </diagram>
</mxfile>
